<mxfile host="app.diagrams.net" modified="2021-03-14T23:25:57.215Z" agent="5.0 (Windows)" etag="yr3_UjI-owcCgKCgT6kX" version="14.4.8" type="github">
  <diagram id="NL89OJRzklcqLsQtfEYm" name="Page-1">
    <mxGraphModel dx="868" dy="460" grid="1" gridSize="10" guides="1" tooltips="1" connect="1" arrows="1" fold="1" page="1" pageScale="1" pageWidth="850" pageHeight="1100" math="0" shadow="0">
      <root>
        <mxCell id="0" />
        <mxCell id="1" parent="0" />
        <mxCell id="dkacu7P7k1g3FOrSHwmr-1" value="" style="whiteSpace=wrap;html=1;aspect=fixed;fillColor=#dae8fc;strokeColor=#6c8ebf;" vertex="1" parent="1">
          <mxGeometry x="360" y="200" width="130" height="130" as="geometry" />
        </mxCell>
        <mxCell id="dkacu7P7k1g3FOrSHwmr-2" value="" style="rounded=0;whiteSpace=wrap;html=1;fillColor=#ffe6cc;strokeColor=#d79b00;" vertex="1" parent="1">
          <mxGeometry x="310" y="90" width="230" height="60" as="geometry" />
        </mxCell>
      </root>
    </mxGraphModel>
  </diagram>
</mxfile>
